<svg width="1920" height="1080" viewBox="0 0 1920 1080" xmlns="http://www.w3.org/2000/svg"><rect width="1920" height="1080" fill="#ffffff"/><path d="M 0,1080 C 0,1080 0,180 0,180 C 88.45128205128205,165.06410256410257 176.9025641025641,150.12820512820514 271,141 C 365.0974358974359,131.87179487179486 464.84102564102557,128.55128205128204 599,125 C 733.1589743589744,121.44871794871794 901.7333333333336,117.66666666666666 1015,133 C 1128.2666666666664,148.33333333333334 1186.225641025641,182.78205128205127 1265,206 C 1343.774358974359,229.21794871794873 1443.3641025641027,241.20512820512823 1556,235 C 1668.6358974358973,228.79487179487177 1794.3179487179486,204.39743589743588 1920,180 C 1920,180 1920,1080 1920,1080 Z" fill="#1ccabe" opacity="0.09999999999999999"/><path d="M 0,1080 C 0,1080 0,360 0,360 C 116.46410256410257,349.9307692307692 232.92820512820515,339.8615384615385 350,352 C 467.07179487179485,364.1384615384615 584.7512820512821,398.4846153846154 679,408 C 773.2487179487179,417.5153846153846 844.0666666666666,402.2 941,389 C 1037.9333333333334,375.8 1160.9820512820513,364.7153846153846 1270,365 C 1379.0179487179487,365.2846153846154 1474.0051282051284,376.9384615384616 1580,378 C 1685.9948717948716,379.0615384615384 1802.997435897436,369.53076923076924 1920,360 C 1920,360 1920,1080 1920,1080 Z" fill="#1ccabe" opacity="0.19999999999999998"/><path d="M 0,1080 C 0,1080 0,540 0,540 C 134.4974358974359,564.0102564102564 268.9948717948718,588.0205128205127 379,576 C 489.0051282051282,563.9794871794873 574.5179487179487,515.9282051282051 651,524 C 727.4820512820513,532.0717948717949 794.9333333333334,596.2666666666667 916,607 C 1037.0666666666666,617.7333333333333 1211.748717948718,575.0051282051281 1336,563 C 1460.251282051282,550.9948717948719 1534.071794871795,569.7128205128206 1623,571 C 1711.928205128205,572.2871794871794 1815.9641025641026,556.1435897435897 1920,540 C 1920,540 1920,1080 1920,1080 Z" fill="#1ccabe" opacity="0.3"/><path d="M 0,1080 C 0,1080 0,720 0,720 C 95.50256410256412,689.074358974359 191.00512820512824,658.148717948718 305,676 C 418.99487179487176,693.851282051282 551.4820512820512,760.4794871794871 677,764 C 802.5179487179488,767.5205128205129 921.0666666666668,707.9333333333334 1009,700 C 1096.9333333333332,692.0666666666666 1154.251282051282,735.7871794871795 1253,741 C 1351.748717948718,746.2128205128205 1491.9282051282053,712.9179487179487 1610,703 C 1728.0717948717947,693.0820512820513 1824.0358974358974,706.5410256410257 1920,720 C 1920,720 1920,1080 1920,1080 Z" fill="#1ccabe" opacity="0.39999999999999997"/><path d="M 0,1080 C 0,1080 0,900 0,900 C 106.5025641025641,874.9333333333334 213.0051282051282,849.8666666666667 313,841 C 412.9948717948718,832.1333333333333 506.4820512820513,839.4666666666667 612,872 C 717.5179487179487,904.5333333333333 835.0666666666666,962.2666666666667 965,963 C 1094.9333333333334,963.7333333333333 1237.251282051282,907.4666666666668 1326,902 C 1414.748717948718,896.5333333333332 1449.9282051282053,941.8666666666666 1540,950 C 1630.0717948717947,958.1333333333334 1775.0358974358974,929.0666666666667 1920,900 C 1920,900 1920,1080 1920,1080 Z" fill="#1ccabe" opacity="0.49999999999999994"/></svg>